<svg xmlns="http://www.w3.org/2000/svg" viewBox="0 0 200 200" width="200" height="200" role="img" aria-label="Theropod track mark">
  <defs><linearGradient id="a" x1="0" y1="0" x2="0" y2="1"><stop offset="0" stop-color="#F4C544"/><stop offset="1" stop-color="#C8841A"/></linearGradient></defs>
  <g fill="url(#a)">
    <path d="M100 178 C 81 178 71 166 71 151 C 71 138 81 133 100 133 C 119 133 129 138 129 151 C 129 166 119 178 100 178 Z"/>
    <path d="M88 142 C 90 104 95 60 100 26 C 105 60 110 104 112 142 Z"/>
    <path d="M88 142 C 90 104 95 60 100 26 C 105 60 110 104 112 142 Z" transform="rotate(-34 100 144)"/>
    <path d="M88 142 C 90 104 95 60 100 26 C 105 60 110 104 112 142 Z" transform="rotate(34 100 144)"/>
  </g>
</svg>
